<svg id="visual" viewBox="0 0 960 540" width="960" height="540" xmlns="http://www.w3.org/2000/svg" xmlns:xlink="http://www.w3.org/1999/xlink" version="1.1"><g stroke-width="1" stroke-linejoin="bevel"><path d="M414.4 255.6L335.1 179.4L388.1 292.6Z" fill="#246688" stroke="#246688"></path><path d="M335.1 179.4L312.8 332.6L388.1 292.6Z" fill="#277297" stroke="#277297"></path><path d="M414.4 255.6L451.4 191.4L335.1 179.4Z" fill="#112e42" stroke="#112e42"></path><path d="M335.1 179.4L244.8 191.4L312.8 332.6Z" fill="#0c2435" stroke="#0c2435"></path><path d="M451.4 191.4L384.4 124.3L335.1 179.4Z" fill="#1d4e6b" stroke="#1d4e6b"></path><path d="M335.1 179.4L289.1 129.1L244.8 191.4Z" fill="#00101c" stroke="#00101c"></path><path d="M384.4 124.3L320.8 123.1L335.1 179.4Z" fill="#205a7a" stroke="#205a7a"></path><path d="M320.8 123.1L289.1 129.1L335.1 179.4Z" fill="#15384f" stroke="#15384f"></path><path d="M289.1 129.1L218.8 186.3L244.8 191.4Z" fill="#246688" stroke="#246688"></path><path d="M244.8 191.4L175.5 274.6L312.8 332.6Z" fill="#1d4e6b" stroke="#1d4e6b"></path><path d="M467.6 149.3L398.1 101.3L384.4 124.3Z" fill="#081a28" stroke="#081a28"></path><path d="M384.4 124.3L398.1 101.3L320.8 123.1Z" fill="#277297" stroke="#277297"></path><path d="M318.1 0L226.5 80.1L289.1 129.1Z" fill="#0c2435" stroke="#0c2435"></path><path d="M451.4 191.4L467.6 149.3L384.4 124.3Z" fill="#15384f" stroke="#15384f"></path><path d="M226.5 80.1L193.5 181.3L218.8 186.3Z" fill="#00101c" stroke="#00101c"></path><path d="M218.8 186.3L175.5 274.6L244.8 191.4Z" fill="#297ea6" stroke="#297ea6"></path><path d="M312.8 433.9L376.4 418.7L312.8 332.6Z" fill="#205a7a" stroke="#205a7a"></path><path d="M312.8 332.6L376.4 418.7L388.1 292.6Z" fill="#19435d" stroke="#19435d"></path><path d="M542.6 325.6L554.6 235.4L414.4 255.6Z" fill="#00101c" stroke="#00101c"></path><path d="M414.4 255.6L554.6 235.4L451.4 191.4Z" fill="#112e42" stroke="#112e42"></path><path d="M451.4 191.4L554.6 235.4L467.6 149.3Z" fill="#297ea6" stroke="#297ea6"></path><path d="M163.5 233.4L175.5 274.6L218.8 186.3Z" fill="#081a28" stroke="#081a28"></path><path d="M193.5 181.3L163.5 233.4L218.8 186.3Z" fill="#1d4e6b" stroke="#1d4e6b"></path><path d="M247.8 430.7L312.8 433.9L312.8 332.6Z" fill="#081a28" stroke="#081a28"></path><path d="M312.8 433.9L343.1 440.7L376.4 418.7Z" fill="#00101c" stroke="#00101c"></path><path d="M542.6 325.6L414.4 255.6L388.1 292.6Z" fill="#19435d" stroke="#19435d"></path><path d="M318.1 0L289.1 129.1L320.8 123.1Z" fill="#19435d" stroke="#19435d"></path><path d="M289.1 129.1L226.5 80.1L218.8 186.3Z" fill="#297ea6" stroke="#297ea6"></path><path d="M95.3 207.3L124.3 252.4L163.5 233.4Z" fill="#277297" stroke="#277297"></path><path d="M468.4 468.9L542.6 325.6L376.4 418.7Z" fill="#205a7a" stroke="#205a7a"></path><path d="M376.4 418.7L542.6 325.6L388.1 292.6Z" fill="#205a7a" stroke="#205a7a"></path><path d="M312.8 433.9L342.1 448.9L343.1 440.7Z" fill="#1d4e6b" stroke="#1d4e6b"></path><path d="M343.1 440.7L342.1 448.9L376.4 418.7Z" fill="#297ea6" stroke="#297ea6"></path><path d="M157.5 340.7L247.8 430.7L312.8 332.6Z" fill="#246688" stroke="#246688"></path><path d="M209.8 540L390.1 540L342.1 448.9Z" fill="#00101c" stroke="#00101c"></path><path d="M124.3 252.4L157.5 340.7L175.5 274.6Z" fill="#205a7a" stroke="#205a7a"></path><path d="M175.5 274.6L157.5 340.7L312.8 332.6Z" fill="#15384f" stroke="#15384f"></path><path d="M470.4 0L379.4 17.1L398.1 101.3Z" fill="#00101c" stroke="#00101c"></path><path d="M398.1 101.3L379.4 17.1L320.8 123.1Z" fill="#15384f" stroke="#15384f"></path><path d="M523.6 78.1L398.1 101.3L467.6 149.3Z" fill="#297ea6" stroke="#297ea6"></path><path d="M163.5 233.4L124.3 252.4L175.5 274.6Z" fill="#277297" stroke="#277297"></path><path d="M95.3 207.3L163.5 233.4L193.5 181.3Z" fill="#15384f" stroke="#15384f"></path><path d="M607.9 197.4L523.6 78.1L467.6 149.3Z" fill="#15384f" stroke="#15384f"></path><path d="M157.5 340.7L216.5 435.9L247.8 430.7Z" fill="#00101c" stroke="#00101c"></path><path d="M209.8 540L342.1 448.9L312.8 433.9Z" fill="#246688" stroke="#246688"></path><path d="M379.4 17.1L318.1 0L320.8 123.1Z" fill="#246688" stroke="#246688"></path><path d="M504.6 496.9L468.4 468.9L392.4 540Z" fill="#0c2435" stroke="#0c2435"></path><path d="M392.4 540L468.4 468.9L376.4 418.7Z" fill="#00101c" stroke="#00101c"></path><path d="M651.2 288.4L607.9 197.4L554.6 235.4Z" fill="#0c2435" stroke="#0c2435"></path><path d="M554.6 235.4L607.9 197.4L467.6 149.3Z" fill="#277297" stroke="#277297"></path><path d="M64.3 71.1L95.3 207.3L193.5 181.3Z" fill="#00101c" stroke="#00101c"></path><path d="M124.3 252.4L73.3 329.7L157.5 340.7Z" fill="#00101c" stroke="#00101c"></path><path d="M477.6 0L470.4 0L523.6 78.1Z" fill="#112e42" stroke="#112e42"></path><path d="M523.6 78.1L470.4 0L398.1 101.3Z" fill="#081a28" stroke="#081a28"></path><path d="M379.4 17.1L470.4 0L318.1 0Z" fill="#15384f" stroke="#15384f"></path><path d="M595.9 0L477.6 0L523.6 78.1Z" fill="#19435d" stroke="#19435d"></path><path d="M318.1 0L226.5 0L226.5 80.1Z" fill="#205a7a" stroke="#205a7a"></path><path d="M226.5 80.1L64.3 71.1L193.5 181.3Z" fill="#246688" stroke="#246688"></path><path d="M468.4 468.9L534.6 443.7L542.6 325.6Z" fill="#297ea6" stroke="#297ea6"></path><path d="M542.6 325.6L651.2 288.4L554.6 235.4Z" fill="#112e42" stroke="#112e42"></path><path d="M226.5 0L208.8 0L226.5 80.1Z" fill="#081a28" stroke="#081a28"></path><path d="M95.3 207.3L65.3 277.6L124.3 252.4Z" fill="#15384f" stroke="#15384f"></path><path d="M157.5 340.7L52.3 505.9L216.5 435.9Z" fill="#0c2435" stroke="#0c2435"></path><path d="M65.3 277.6L73.3 329.7L124.3 252.4Z" fill="#15384f" stroke="#15384f"></path><path d="M392.4 540L376.4 418.7L342.1 448.9Z" fill="#205a7a" stroke="#205a7a"></path><path d="M468.4 468.9L504.6 496.9L534.6 443.7Z" fill="#081a28" stroke="#081a28"></path><path d="M618.9 412.7L542.6 325.6L534.6 443.7Z" fill="#205a7a" stroke="#205a7a"></path><path d="M655.2 346.7L651.2 288.4L542.6 325.6Z" fill="#1d4e6b" stroke="#1d4e6b"></path><path d="M209.8 540L312.8 433.9L247.8 430.7Z" fill="#0c2435" stroke="#0c2435"></path><path d="M390.1 540L392.4 540L342.1 448.9Z" fill="#0c2435" stroke="#0c2435"></path><path d="M538.6 540L618.9 412.7L534.6 443.7Z" fill="#1d4e6b" stroke="#1d4e6b"></path><path d="M618.9 412.7L655.2 346.7L542.6 325.6Z" fill="#297ea6" stroke="#297ea6"></path><path d="M618.9 412.7L655.9 351.6L655.2 346.7Z" fill="#1d4e6b" stroke="#1d4e6b"></path><path d="M655.2 346.7L679.2 359.6L651.2 288.4Z" fill="#15384f" stroke="#15384f"></path><path d="M651.2 288.4L665.9 147.3L607.9 197.4Z" fill="#297ea6" stroke="#297ea6"></path><path d="M607.9 197.4L665.9 147.3L523.6 78.1Z" fill="#277297" stroke="#277297"></path><path d="M733.5 271.6L665.9 147.3L651.2 288.4Z" fill="#1d4e6b" stroke="#1d4e6b"></path><path d="M208.8 0L123.3 0L226.5 80.1Z" fill="#15384f" stroke="#15384f"></path><path d="M95.3 207.3L0 201.3L65.3 277.6Z" fill="#00101c" stroke="#00101c"></path><path d="M203.5 540L209.8 540L216.5 435.9Z" fill="#205a7a" stroke="#205a7a"></path><path d="M216.5 435.9L209.8 540L247.8 430.7Z" fill="#112e42" stroke="#112e42"></path><path d="M123.3 0L64.3 71.1L226.5 80.1Z" fill="#112e42" stroke="#112e42"></path><path d="M618.9 412.7L638.9 414.9L655.9 351.6Z" fill="#0c2435" stroke="#0c2435"></path><path d="M659.9 540L638.9 414.9L618.9 412.7Z" fill="#1d4e6b" stroke="#1d4e6b"></path><path d="M52.3 505.9L203.5 540L216.5 435.9Z" fill="#277297" stroke="#277297"></path><path d="M644.9 31.1L595.9 0L523.6 78.1Z" fill="#1d4e6b" stroke="#1d4e6b"></path><path d="M638.9 414.9L679.2 359.6L655.9 351.6Z" fill="#0c2435" stroke="#0c2435"></path><path d="M655.9 351.6L679.2 359.6L655.2 346.7Z" fill="#112e42" stroke="#112e42"></path><path d="M392.4 540L538.6 540L504.6 496.9Z" fill="#0c2435" stroke="#0c2435"></path><path d="M504.6 496.9L538.6 540L534.6 443.7Z" fill="#112e42" stroke="#112e42"></path><path d="M0 170.4L0 201.3L95.3 207.3Z" fill="#0c2435" stroke="#0c2435"></path><path d="M65.3 277.6L0 335.6L73.3 329.7Z" fill="#277297" stroke="#277297"></path><path d="M665.9 147.3L644.9 31.1L523.6 78.1Z" fill="#0c2435" stroke="#0c2435"></path><path d="M64.3 71.1L0 170.4L95.3 207.3Z" fill="#246688" stroke="#246688"></path><path d="M0 201.3L0 335.6L65.3 277.6Z" fill="#00101c" stroke="#00101c"></path><path d="M73.3 329.7L52.3 505.9L157.5 340.7Z" fill="#0c2435" stroke="#0c2435"></path><path d="M679.2 359.6L733.5 271.6L651.2 288.4Z" fill="#246688" stroke="#246688"></path><path d="M665.9 147.3L717.2 101.3L644.9 31.1Z" fill="#112e42" stroke="#112e42"></path><path d="M0 335.6L0 397.7L73.3 329.7Z" fill="#00101c" stroke="#00101c"></path><path d="M756.5 99.3L717.2 101.3L665.9 147.3Z" fill="#00101c" stroke="#00101c"></path><path d="M0 397.7L52.3 505.9L73.3 329.7Z" fill="#246688" stroke="#246688"></path><path d="M0 0L0 29.1L64.3 71.1Z" fill="#205a7a" stroke="#205a7a"></path><path d="M64.3 71.1L0 29.1L0 170.4Z" fill="#19435d" stroke="#19435d"></path><path d="M0 397.7L0 455.9L52.3 505.9Z" fill="#297ea6" stroke="#297ea6"></path><path d="M679.2 359.6L765.5 333.7L733.5 271.6Z" fill="#0c2435" stroke="#0c2435"></path><path d="M638.9 414.9L713.2 447.9L679.2 359.6Z" fill="#19435d" stroke="#19435d"></path><path d="M659.9 540L713.2 447.9L638.9 414.9Z" fill="#0c2435" stroke="#0c2435"></path><path d="M713.2 447.9L765.5 333.7L679.2 359.6Z" fill="#277297" stroke="#277297"></path><path d="M733.5 271.6L756.5 99.3L665.9 147.3Z" fill="#081a28" stroke="#081a28"></path><path d="M0 540L50.3 540L52.3 505.9Z" fill="#297ea6" stroke="#297ea6"></path><path d="M52.3 505.9L50.3 540L203.5 540Z" fill="#246688" stroke="#246688"></path><path d="M123.3 0L0 0L64.3 71.1Z" fill="#0c2435" stroke="#0c2435"></path><path d="M781.5 280.4L756.5 99.3L733.5 271.6Z" fill="#15384f" stroke="#15384f"></path><path d="M717.2 101.3L751.2 18.1L644.9 31.1Z" fill="#00101c" stroke="#00101c"></path><path d="M644.9 31.1L754.5 0L595.9 0Z" fill="#15384f" stroke="#15384f"></path><path d="M538.6 540L659.9 540L618.9 412.7Z" fill="#00101c" stroke="#00101c"></path><path d="M765.5 333.7L781.5 280.4L733.5 271.6Z" fill="#205a7a" stroke="#205a7a"></path><path d="M757.5 27.1L717.2 101.3L756.5 99.3Z" fill="#00101c" stroke="#00101c"></path><path d="M757.5 27.1L751.2 18.1L717.2 101.3Z" fill="#0c2435" stroke="#0c2435"></path><path d="M875.7 0L757.5 27.1L892.7 30.1Z" fill="#246688" stroke="#246688"></path><path d="M0 455.9L0 540L52.3 505.9Z" fill="#112e42" stroke="#112e42"></path><path d="M757.2 0L754.5 0L751.2 18.1Z" fill="#081a28" stroke="#081a28"></path><path d="M751.2 18.1L754.5 0L644.9 31.1Z" fill="#00101c" stroke="#00101c"></path><path d="M875.7 0L757.2 0L757.5 27.1Z" fill="#205a7a" stroke="#205a7a"></path><path d="M757.5 27.1L757.2 0L751.2 18.1Z" fill="#246688" stroke="#246688"></path><path d="M765.5 333.7L837.7 358.6L781.5 280.4Z" fill="#19435d" stroke="#19435d"></path><path d="M713.2 447.9L837.7 358.6L765.5 333.7Z" fill="#297ea6" stroke="#297ea6"></path><path d="M659.9 540L758.5 483.9L713.2 447.9Z" fill="#1d4e6b" stroke="#1d4e6b"></path><path d="M758.5 483.9L837.7 358.6L713.2 447.9Z" fill="#205a7a" stroke="#205a7a"></path><path d="M781.5 280.4L919.7 193.4L756.5 99.3Z" fill="#0c2435" stroke="#0c2435"></path><path d="M659.9 540L755.2 540L758.5 483.9Z" fill="#277297" stroke="#277297"></path><path d="M758.5 483.9L869.7 462.9L837.7 358.6Z" fill="#246688" stroke="#246688"></path><path d="M755.2 540L775.5 540L758.5 483.9Z" fill="#1d4e6b" stroke="#1d4e6b"></path><path d="M775.5 540L869.7 462.9L758.5 483.9Z" fill="#1d4e6b" stroke="#1d4e6b"></path><path d="M960 253.6L919.7 193.4L781.5 280.4Z" fill="#1d4e6b" stroke="#1d4e6b"></path><path d="M960 253.6L781.5 280.4L837.7 358.6Z" fill="#15384f" stroke="#15384f"></path><path d="M892.7 30.1L757.5 27.1L756.5 99.3Z" fill="#205a7a" stroke="#205a7a"></path><path d="M924.7 134.3L892.7 30.1L756.5 99.3Z" fill="#246688" stroke="#246688"></path><path d="M919.7 193.4L924.7 134.3L756.5 99.3Z" fill="#081a28" stroke="#081a28"></path><path d="M869.7 462.9L914.7 423.7L837.7 358.6Z" fill="#112e42" stroke="#112e42"></path><path d="M919.7 193.4L960 218.4L924.7 134.3Z" fill="#15384f" stroke="#15384f"></path><path d="M960 344.7L960 253.6L837.7 358.6Z" fill="#00101c" stroke="#00101c"></path><path d="M960 253.6L960 218.4L919.7 193.4Z" fill="#277297" stroke="#277297"></path><path d="M924.7 134.3L960 93.1L892.7 30.1Z" fill="#246688" stroke="#246688"></path><path d="M914.7 423.7L960 344.7L837.7 358.6Z" fill="#297ea6" stroke="#297ea6"></path><path d="M960 540L960 428.9L914.7 423.7Z" fill="#1d4e6b" stroke="#1d4e6b"></path><path d="M775.5 540L884.7 540L869.7 462.9Z" fill="#297ea6" stroke="#297ea6"></path><path d="M960 428.9L960 344.7L914.7 423.7Z" fill="#246688" stroke="#246688"></path><path d="M960 218.4L960 116.3L924.7 134.3Z" fill="#081a28" stroke="#081a28"></path><path d="M892.7 30.1L960 0L875.7 0Z" fill="#081a28" stroke="#081a28"></path><path d="M960 116.3L960 93.1L924.7 134.3Z" fill="#297ea6" stroke="#297ea6"></path><path d="M960 540L914.7 423.7L869.7 462.9Z" fill="#15384f" stroke="#15384f"></path><path d="M960 93.1L960 0L892.7 30.1Z" fill="#246688" stroke="#246688"></path><path d="M884.7 540L960 540L869.7 462.9Z" fill="#19435d" stroke="#19435d"></path></g></svg>